<?xml version="1.0" standalone="no"?>
<!DOCTYPE svg PUBLIC "-//W3C//DTD SVG 20010904//EN"
 "http://www.w3.org/TR/2001/REC-SVG-20010904/DTD/svg10.dtd">
<svg version="1.0" xmlns="http://www.w3.org/2000/svg"
 width="431.000000pt" height="528.000000pt" viewBox="0 0 431.000000 528.000000"
 preserveAspectRatio="xMidYMid meet">

<g transform="translate(0.000000,528.000000) scale(0.100000,-0.100000)"
fill="#000000" stroke="none">
<path d="M1315 5188 c16 -146 74 -304 161 -436 56 -85 259 -300 349 -369 l41
-32 53 47 53 47 -69 57 c-99 82 -243 233 -292 306 -84 124 -151 304 -151 404
l0 38 -76 0 -76 0 7 -62z"/>
<path d="M2587 5243 c-4 -3 -7 -22 -7 -42 0 -50 -28 -156 -61 -229 -82 -183
-228 -345 -544 -607 -353 -292 -535 -500 -604 -691 -91 -250 -61 -471 96 -714
52 -81 228 -265 353 -370 l47 -39 48 43 49 43 -164 165 c-178 177 -249 274
-298 406 -30 81 -42 261 -23 339 40 155 205 381 404 549 284 241 373 320 477
424 64 63 139 147 168 185 104 138 180 323 198 484 l7 61 -70 0 c-38 0 -73 -3
-76 -7z"/>
<path d="M1540 5100 l0 -30 240 0 240 0 0 30 0 30 -240 0 -240 0 0 -30z"/>
<path d="M1640 4891 c0 -5 8 -18 18 -30 16 -21 24 -22 187 -19 l170 3 3 28 3
27 -190 0 c-105 0 -191 -4 -191 -9z"/>
<path d="M1864 4637 c11 -15 26 -25 34 -22 7 3 38 5 69 5 50 0 54 2 51 21 -3
19 -10 21 -89 22 l-86 2 21 -28z"/>
<path d="M2105 4205 l-50 -44 30 -23 c51 -39 189 -170 242 -228 127 -141 187
-241 224 -376 16 -60 20 -98 17 -178 -3 -99 -4 -104 -55 -206 -28 -58 -81
-144 -116 -191 -60 -80 -205 -223 -304 -301 -295 -232 -505 -432 -604 -570
-99 -140 -163 -308 -171 -445 l-3 -58 73 -3 72 -3 0 43 c0 111 70 276 177 419
85 113 182 207 421 407 404 337 541 500 623 742 29 84 33 107 33 205 0 98 -4
121 -33 205 -55 163 -123 271 -260 414 -87 90 -247 236 -258 236 -5 -1 -30
-21 -58 -45z"/>
<path d="M1857 3960 l-19 -31 84 3 c77 3 83 5 86 26 3 20 -1 22 -45 22 -26 0
-57 3 -68 6 -15 4 -25 -3 -38 -26z"/>
<path d="M1646 3735 l-16 -25 190 0 190 0 0 25 0 25 -174 0 -174 0 -16 -25z"/>
<path d="M2010 3505 l0 -25 241 0 c216 0 241 2 235 16 -3 9 -6 20 -6 25 0 5
-99 9 -235 9 l-235 0 0 -25z"/>
<path d="M1544 3304 c3 -9 6 -20 6 -25 0 -5 99 -9 235 -9 l235 0 0 25 0 25
-241 0 c-216 0 -241 -2 -235 -16z"/>
<path d="M2020 3065 l0 -25 174 0 174 0 16 25 16 25 -190 0 -190 0 0 -25z"/>
<path d="M2033 2864 c-7 -3 -13 -14 -13 -25 0 -16 7 -19 48 -19 26 0 56 -3 67
-6 15 -4 25 3 37 24 l17 29 -72 1 c-40 0 -78 -1 -84 -4z"/>
<path d="M2115 2415 l-50 -44 30 -23 c17 -13 69 -59 117 -103 234 -216 347
-400 367 -595 l6 -65 35 1 c19 1 52 2 74 3 l38 1 -7 68 c-13 132 -86 308 -178
432 -70 94 -350 371 -374 370 -5 -1 -30 -21 -58 -45z"/>
<path d="M1867 2180 l-19 -31 84 3 c77 3 83 5 86 26 3 20 -1 22 -45 22 -26 0
-57 3 -68 6 -15 4 -25 -3 -38 -26z"/>
<path d="M1656 1955 l-16 -25 190 0 190 0 0 25 0 25 -174 0 -174 0 -16 -25z"/>
<path d="M2020 1725 l0 -25 241 0 c216 0 241 2 235 16 -3 9 -6 20 -6 25 0 5
-99 9 -235 9 l-235 0 0 -25z"/>
<path d="M1738 748 c-1 -46 -2 -94 -3 -108 -1 -14 -2 -40 -3 -59 l-2 -33 -35
31 c-63 55 -160 64 -243 22 -155 -79 -193 -313 -74 -452 40 -46 73 -65 141
-80 67 -14 116 1 175 52 l46 41 0 -41 0 -41 72 0 71 0 -6 242 c-4 133 -7 301
-7 375 l0 133 -65 0 -65 0 -2 -82z m-59 -265 c59 -44 77 -132 42 -209 -50
-109 -194 -111 -253 -4 -26 47 -21 134 10 177 45 63 140 80 201 36z"/>
<path d="M60 440 l0 -360 270 0 271 0 -3 62 -3 63 -195 0 -195 0 -3 87 -3 88
168 2 168 3 3 62 3 63 -168 2 -168 3 -3 83 -3 82 196 0 195 0 0 60 0 60 -265
0 -265 0 0 -360z"/>
<path d="M3265 789 c-4 -6 -5 -12 -2 -15 2 -3 7 2 10 11 7 17 1 20 -8 4z"/>
<path d="M3066 625 c-9 -26 -7 -32 5 -12 6 10 9 21 6 23 -2 3 -7 -2 -11 -11z"/>
<path d="M990 623 c-58 -9 -71 -15 -105 -48 l-35 -36 0 36 0 35 -70 0 -70 0 0
-265 0 -265 70 0 70 0 0 170 c0 220 13 250 109 250 31 0 49 -7 73 -29 l33 -29
0 -181 0 -181 73 0 73 0 -6 198 c-7 214 -16 260 -63 305 -22 21 -100 50 -122
45 -3 0 -16 -2 -30 -5z"/>
<path d="M2197 619 c-21 -5 -50 -15 -65 -23 -39 -20 -108 -97 -128 -143 -25
-56 -23 -157 4 -216 35 -79 59 -105 129 -138 158 -75 335 -16 404 135 22 48
25 148 7 208 -15 52 -87 131 -141 156 -49 24 -156 34 -210 21z m163 -138 c57
-40 77 -142 42 -211 -50 -101 -201 -107 -254 -9 -22 42 -23 119 -2 164 36 77
145 105 214 56z"/>
<path d="M3050 575 c0 -8 2 -15 4 -15 2 0 6 7 10 15 3 8 1 15 -4 15 -6 0 -10
-7 -10 -15z"/>
<path d="M3341 554 c0 -11 3 -14 6 -6 3 7 2 16 -1 19 -3 4 -6 -2 -5 -13z"/>
<path d="M2698 489 c9 -23 18 -37 20 -31 3 10 -24 72 -32 72 -3 0 3 -19 12
-41z"/>
<path d="M2720 434 c0 -5 5 -15 12 -22 7 -7 9 -12 5 -12 -4 0 -2 -10 5 -22 7
-13 11 -27 10 -31 -1 -5 2 -6 7 -3 6 4 4 21 -6 44 -16 39 -33 63 -33 46z"/>
<path d="M3280 230 c0 -11 4 -20 9 -20 5 0 7 9 4 20 -3 11 -7 20 -9 20 -2 0
-4 -9 -4 -20z"/>
<path d="M2810 214 c0 -6 7 -19 16 -30 14 -18 14 -18 3 6 -14 31 -19 36 -19
24z"/>
<path d="M3290 190 c0 -27 38 -77 70 -94 27 -13 30 -13 20 -1 -7 8 -18 15 -25
15 -6 0 -24 21 -38 48 -15 26 -27 40 -27 32z"/>
<path d="M2845 135 c4 -11 10 -28 12 -37 4 -13 15 -18 37 -17 23 1 25 3 9 6
-13 2 -23 7 -23 11 0 4 -10 18 -21 32 -17 20 -20 21 -14 5z"/>
<path d="M2996 125 c-9 -26 -7 -32 5 -12 6 10 9 21 6 23 -2 3 -7 -2 -11 -11z"/>
<path d="M3640 92 c0 -4 10 -9 22 -9 18 -2 20 0 8 7 -18 12 -30 13 -30 2z"/>
<path d="M3745 90 c-3 -5 -1 -10 4 -10 6 0 11 5 11 10 0 6 -2 10 -4 10 -3 0
-8 -4 -11 -10z"/>
</g>
</svg>
